# xmcd
#
# Track frame offsets: 
#        150
#        25350
#        56980
#        83637
#        114750
#        136100
#        158090
#        193750
#        220982
#        249102
#        282270
#
# Disc length: 4021 seconds
#
# Revision: 1
# Processed by: cddbd v1.5.2PL0 Copyright (c) Steve Scherf et al.
# Submitted via: ExactAudioCopy v0.99pb4
#
DISCID=910fb30b
DTITLE=Carl Leukaufe - The Warrior
DYEAR=1996
DGENRE=Jazz
TTITLE0=Airegin
TTITLE1=Before You Know It
TTITLE2=Little Warrior
TTITLE3=Come Rain or Come Shine
TTITLE4=Vierd Blues
TTITLE5=Tricotism
TTITLE6=Pannonica
TTITLE7=Star Eyes
TTITLE8=Blues for John Gilmore
TTITLE9=The Man I Love
TTITLE10=Chant
EXTD=YEAR: 1996
EXTT0=
EXTT1=
EXTT2=
EXTT3=
EXTT4=
EXTT5=
EXTT6=
EXTT7=
EXTT8=
EXTT9=
EXTT10=
PLAYORDER=
